<?xml version="1.0" encoding="utf-8"?>
<!-- Generator: Adobe Illustrator 17.0.0, SVG Export Plug-In . SVG Version: 6.00 Build 0)  -->
<!DOCTYPE svg PUBLIC "-//W3C//DTD SVG 1.1//EN" "http://www.w3.org/Graphics/SVG/1.1/DTD/svg11.dtd">
<svg version="1.1" id="Ebene_1" xmlns="http://www.w3.org/2000/svg" xmlns:xlink="http://www.w3.org/1999/xlink" x="0px" y="0px"
	 width="311.81px" height="73.701px" viewBox="0 0 311.81 73.701" enable-background="new 0 0 311.81 73.701" xml:space="preserve">
<g>
	<g>
		<path d="M31.875,32.278c0.153,0,0.638,0.382,0.867,0.791c0.484-0.077,0.459,0.408,0.637,0.561
			c0.281,0.229,0.663,0.434,0.791,0.663c0.459,0.893,0.179,0.969,0.484,1.352c-0.077,0.076,0,0.561,0,0.611
			c0,0.408,0.025,0.638,0,0.663c-0.025,0.025-0.102,0.204-0.102,0.229c0,0.076,0.204,0.969,0.536,1.249
			c0,0.689,0.765,1.582,0.765,1.965c0,0.051,0.357,0.688,0.357,0.918c0,0.484-0.102,0.51-0.102,0.662
			c0,0.127,0.025,0.281,0.025,0.459c0,0.127,0,0.357-0.025,0.434c-0.102,0.281-0.612,1.199-0.688,1.402
			c-0.332,0.842-1.097,1.402-1.53,1.402c-0.255,0-0.255,0.281-0.51,0.281c-0.102,0-0.994,0.484-1.351,0.484
			c-0.383,0-0.434,0.102-0.995,0.102c-0.153,0-1.173-0.357-1.173-0.816c0-0.051-0.867-0.51-0.867-1.529
			c0-0.791-0.306-0.842-1.097-0.842c-0.459,0-1.912-0.816-2.116-0.816c-0.153,0-0.791-1.045-0.841-1.197
			c-0.229-0.535-0.688-0.383-0.841-0.535c-0.229,0.229-0.51,0.33-0.663,0.33c-1.02,0-1.454-0.713-1.555-0.943
			c-0.026-0.076-0.586-0.51-0.586-0.969c0-0.102-0.281-0.637-0.281-1.045c0-0.179,0.561-1.53,0.714-1.759
			c0.051-0.077,0.204-0.153,0.255-0.229c0.816-1.352,1.402-1.198,1.581-1.275c0.127-0.051,0.077-0.229,0.357-0.229
			c0.077,0,0.025-0.102,0.332-0.102c0.28,0,0.51-0.459,1.581-0.459c0.893,0,2.397-1.504,3.009-1.504
			c0.127,0,0.306-0.281,0.918-0.281c0.102,0,0.841-0.357,1.071-0.357C31.186,31.946,31.62,32.278,31.875,32.278z M27.922,26.49
			c0.434,0,0.459,0.127,0.638,0.127c0.127,0,0.255,0.178,0.382,0.229c0.484,0.306,0.663,1.071,0.663,1.351
			c0,0.204-0.153,0.586-0.153,0.995c0,0.484-1.147,2.167-1.683,2.422c-0.484,0.229-1.275,0.357-1.428,0.408
			c-0.306,0.127-0.179,0.204-1.02,0.204c-1.02,0-1.504-1.479-1.504-1.607c0-0.127-0.025-0.331,0-0.638
			c0.025-0.357-0.025-0.51,0-0.739c0.077-0.739,0.281-0.459,0.281-0.841c0-0.332,0.867-0.995,0.943-1.071
			c0.127-0.102,0.943-0.74,1.224-0.74c0.051,0,0.179-0.153,0.382-0.153c0.357,0,0.74,0.051,1.173,0.051H27.922z M29.453,24.782
			c-0.229,0.229-0.408,0.434-0.612,0.739c-0.28,0.536-1.071,0.102-0.765-0.434c0.229-0.382,0.586-0.714,1.045-0.943
			C29.529,23.966,29.835,24.323,29.453,24.782z M34.067,23.277c0.025,0.102,0.051,0.077,0.306,0.077
			c0.357,0,0.994,0.688,1.147,1.173c0.127,0.433,0.051,0.943,0.051,1.402l-0.229,1.479c-0.229,0.026-0.739,1.301-1.071,1.326
			c0,0.306-0.102-0.051-0.255,0.459c-0.026,0.102-0.077,0-0.127,0.025c-0.077,0.051-0.306,0.536-0.663,0.536
			c-0.153,0-0.255-0.026-0.408,0c-0.127,0.025-0.102,0.102-0.459,0.102h-0.051c-0.127,0-1.811-0.357-1.811-2.091v-0.178
			c0-0.357-0.102-0.51-0.102-0.688c0-0.332-0.102-0.612,0.051-1.071c0.536-1.607,0.714-1.198,0.816-1.428
			c0.332-0.714,1.581-1.122,2.32-1.122C33.889,23.277,33.812,23.303,34.067,23.277z M35.393,22.666
			c-0.458,0.561-1.3-0.128-0.841-0.714l0.765-0.561c0.102-0.127,0.204-0.179,0.306-0.179c0.204,0,0.357,0.179,0.153,0.612
			L35.393,22.666z M40.11,25.904c0.051,0.025-0.025,0.102,0.178,0.102c0.077,0,0.051,0.102,0.204,0.153
			c0.281,0.127,0.612,1.071,0.612,1.3c0,0.025,0.229,0.229,0.229,1.071v0.077c0,0.79-0.076,0.867-0.076,0.943
			c0,0.076-0.408,0.484-0.434,0.969c-0.051-0.025-1.096,1.275-1.122,1.326c-0.025,0.077-0.663,0.434-1.504,0.434
			c-0.638,0-1.25-0.153-1.53-0.178c-0.051-0.026-1.504-0.918-1.504-2.015c0-0.867,0.714-2.091,1.071-2.83
			c0.663-1.377,1.887-1.581,2.269-1.581c0.077,0,0.127,0.025,0.204,0c0.127-0.026,0.229-0.102,0.382-0.102
			C39.371,25.572,40.059,25.878,40.11,25.904z M40.059,33.247c0.077,0,1.403,0.562,1.403,1.989c0,0.306,0,0.688,0,0.943
			c0,0.484-0.281,0.714-0.332,0.739c-0.051,0.025-0.255,0.739-0.306,0.815c-0.434,0.688-1.938,1.352-2.04,1.352
			c-0.229,0-0.485-0.076-0.714-0.051c-1.224,0.076-1.81-1.097-1.81-1.403c0-0.688,0.663-1.428,0.663-1.657
			c0-0.102,0.255-0.383,0.331-0.383c0.153,0,0.179-0.841,0.688-1.325c1.071-1.021,1.658-1.046,1.683-1.046
			C39.651,33.272,39.958,33.247,40.059,33.247z M41.028,24.909c-0.332,0.663-1.275,0.153-0.943-0.484l0.688-0.765
			c0.331-0.637,0.892-0.306,0.535,0.383L41.028,24.909z M41.92,33.018c-0.535,0.51-1.3-0.306-0.765-0.816
			c0.434-0.383,0.637-0.357,0.816-0.893c0.229-0.714,0.586-0.102,0.586,0.255C42.558,32.074,42.303,32.66,41.92,33.018z"/>
	</g>
	<g>
		<path d="M54.579,46.352c-2.015,0-3.582-0.8-3.582-4.126v-9.786h-2.239v-2.751h2.239v-4.637l3.454-0.512v5.149h3.262v2.751h-3.262
			v9.179c0,1.312,0.288,1.728,1.471,1.728c0.416,0,0.959-0.064,1.567-0.16l0.224,2.687C56.85,46.128,55.667,46.352,54.579,46.352z"
			/>
		<path d="M64.015,46.384c-2.526,0-4.445-2.079-4.445-5.117c0-3.103,2.431-5.021,8.155-5.021h0.96v-0.512
			c0-2.239-0.352-3.518-2.814-3.518c-1.535,0-3.23,0.512-4.958,1.087l-0.671-2.526c2.047-0.832,4.157-1.375,6.108-1.375
			c4.126,0,5.821,1.311,5.821,5.469v11.226h-2.846l-0.352-1.887C67.085,45.808,65.966,46.384,64.015,46.384z M67.533,38.932
			c-3.582,0-4.414,0.8-4.414,2.175c0,1.312,0.832,2.335,1.983,2.335c1.119,0,2.11-0.576,3.582-1.983v-2.526H67.533z"/>
		<path d="M74.73,46.096V44.24l5.597-11.609h-5.405v-2.942h9.563v1.887l-5.597,11.578h5.821v2.942H74.73z"/>
		<path d="M88.836,46.096v-4.285h3.901v4.285H88.836z"/>
	</g>
	<g>
		<path d="M97.596,26.621v-3.582h3.486v3.582H97.596z M97.596,46.099V29.691h3.486v16.407H97.596z"/>
		<path d="M113.588,46.099V36.056c0-1.887-0.608-3.454-2.111-3.454c-0.928,0-1.951,0.576-3.23,1.791v11.706h-3.486V29.691h2.878
			l0.352,1.887c2.111-1.759,3.198-2.175,4.798-2.175c2.559,0,4.285,1.983,4.285,5.693v11.002H113.588z"/>
		<path d="M124.624,46.354c-2.015,0-3.582-0.8-3.582-4.126v-9.786h-2.239v-2.751h2.239v-4.637l3.454-0.512v5.149h3.262v2.751h-3.262
			v9.179c0,1.312,0.288,1.728,1.471,1.728c0.416,0,0.96-0.064,1.567-0.16l0.224,2.687C126.894,46.131,125.71,46.354,124.624,46.354z
			"/>
		<path d="M135.882,46.354c-4.51,0-6.364-2.526-6.364-8.379c0-5.725,2.559-8.571,6.748-8.571c3.614,0,5.948,2.495,5.948,7.196
			c0,0.672-0.031,1.632-0.096,2.367h-9.051c0,3.166,0.991,4.478,3.326,4.478c1.215,0,3.166-0.32,4.894-0.832l0.64,2.495
			C139.785,45.971,137.865,46.354,135.882,46.354z M138.761,36.088c0-2.143-0.736-3.87-2.783-3.87c-2.078,0-2.878,2.015-2.942,4.062
			h5.726V36.088z"/>
		<path d="M152.099,32.986c-1.279,0-1.983,0.512-3.326,1.791v11.322h-3.486V29.691h2.91l0.32,2.111
			c1.951-2.079,2.59-2.399,3.869-2.399h0.704v3.582H152.099z"/>
		<path d="M164.125,46.099V36.056c0-1.887-0.607-3.454-2.111-3.454c-0.928,0-1.951,0.576-3.23,1.791v11.706h-3.486V29.691h2.878
			l0.352,1.887c2.111-1.759,3.199-2.175,4.797-2.175c2.559,0,4.287,1.983,4.287,5.693v11.002H164.125z"/>
		<path d="M174.744,46.387c-2.525,0-4.445-2.079-4.445-5.117c0-3.103,2.432-5.021,8.156-5.021h0.959v-0.512
			c0-2.239-0.352-3.518-2.814-3.518c-1.535,0-3.23,0.512-4.957,1.087l-0.672-2.526c2.047-0.832,4.158-1.375,6.109-1.375
			c4.125,0,5.82,1.311,5.82,5.469v11.226h-2.848l-0.352-1.887C177.814,45.811,176.695,46.387,174.744,46.387z M178.262,38.935
			c-3.582,0-4.412,0.8-4.412,2.175c0,1.312,0.83,2.335,1.982,2.335c1.119,0,2.111-0.576,3.582-1.983v-2.526H178.262z"/>
		<path d="M190.449,46.354c-2.016,0-3.582-0.8-3.582-4.126v-9.786h-2.238v-2.751h2.238v-4.637l3.455-0.512v5.149h3.262v2.751h-3.262
			v9.179c0,1.312,0.287,1.728,1.471,1.728c0.416,0,0.959-0.064,1.566-0.16l0.225,2.687
			C192.721,46.131,191.537,46.354,190.449,46.354z"/>
		<path d="M196.08,26.621v-3.582h3.486v3.582H196.08z M196.08,46.099V29.691h3.486v16.407H196.08z"/>
		<path d="M209.352,46.354h-0.096c-4.477,0-6.748-2.398-6.748-8.411c0-5.149,2.207-8.54,6.941-8.54h0.096
			c4.477,0,6.748,2.399,6.748,8.412C216.293,42.964,214.086,46.354,209.352,46.354z M209.416,32.442
			c-2.494,0-3.357,2.238-3.357,5.437c0,3.294,0.832,5.405,3.326,5.405s3.357-2.207,3.357-5.405
			C212.742,34.585,211.91,32.442,209.416,32.442z"/>
		<path d="M228.064,46.099V36.056c0-1.887-0.607-3.454-2.111-3.454c-0.928,0-1.951,0.576-3.23,1.791v11.706h-3.486V29.691h2.879
			l0.352,1.887c2.111-1.759,3.199-2.175,4.797-2.175c2.559,0,4.287,1.983,4.287,5.693v11.002H228.064z"/>
		<path d="M238.684,46.387c-2.525,0-4.445-2.079-4.445-5.117c0-3.103,2.432-5.021,8.156-5.021h0.959v-0.512
			c0-2.239-0.352-3.518-2.814-3.518c-1.535,0-3.23,0.512-4.957,1.087l-0.672-2.526c2.047-0.832,4.158-1.375,6.109-1.375
			c4.125,0,5.82,1.311,5.82,5.469v11.226h-2.848l-0.352-1.887C241.754,45.811,240.635,46.387,238.684,46.387z M242.201,38.935
			c-3.582,0-4.412,0.8-4.412,2.175c0,1.312,0.83,2.335,1.982,2.335c1.119,0,2.111-0.576,3.582-1.983v-2.526H242.201z"/>
		<path d="M250.486,46.099V23.327l3.486-0.512v23.283H250.486z"/>
	</g>
</g>
</svg>
