<?xml version="1.0" encoding="utf-8"?>
<!-- Generator: Adobe Illustrator 17.0.0, SVG Export Plug-In . SVG Version: 6.00 Build 0)  -->
<!DOCTYPE svg PUBLIC "-//W3C//DTD SVG 1.1//EN" "http://www.w3.org/Graphics/SVG/1.1/DTD/svg11.dtd">
<svg version="1.1" id="Calque_1" xmlns="http://www.w3.org/2000/svg" xmlns:xlink="http://www.w3.org/1999/xlink" x="0px" y="0px"
	 width="150px" height="50px" viewBox="0 0 150 50" enable-background="new 0 0 150 50" xml:space="preserve">
<path fill-rule="evenodd" clip-rule="evenodd" d="M133.313,26.984c-0.607,1.101-0.83,1.341-1.134,1.341
	c-0.303,0-0.51-0.734-0.51-2.505c0-1.867,0.319-2.378,0.783-2.378c0.303,0,0.606,0.176,0.862,0.574V26.984z M132.147,30.989h-1.309
	c-0.192,0-0.303,0.144-0.271,0.335l0.08,0.558c0.032,0.208,0.128,0.255,0.271,0.287c0.623,0.127,1.182,0.159,1.565,0.159
	c1.597,0,2.682-0.415,2.682-3.048v-6.878c0-0.176-0.112-0.272-0.272-0.272h-0.814c-0.144,0-0.24,0.08-0.288,0.224l-0.16,0.447
	c-0.383-0.495-0.974-0.766-1.565-0.766c-1.405,0-2.299,1.293-2.299,3.814c0,2.872,0.59,3.989,1.932,3.989
	c0.591,0,1.277-0.287,1.661-1.037v0.479C133.361,30.702,133.297,30.989,132.147,30.989 M106.235,25.819
	c0-2.92-0.798-3.862-2.569-3.862c-1.708,0-2.777,1.005-2.777,4.404c0,3.766,1.276,4.293,2.745,4.293
	c0.941,0,2.043-0.558,2.617-1.356c0.128-0.176,0.128-0.287,0.016-0.415l-0.303-0.367c-0.08-0.096-0.144-0.128-0.24-0.128
	c-0.335,0-0.782,0.798-1.835,0.798c-0.83,0-1.085-0.67-1.085-2.075v-0.128l3.096-0.303c0.224-0.016,0.335-0.112,0.335-0.287V25.819z
	 M103.618,23.218c0.542,0,0.75,0.591,0.75,2.282l-1.564,0.128C102.804,23.601,103.187,23.218,103.618,23.218 M89.355,25.819
	c0-2.92-0.798-3.862-2.569-3.862c-1.708,0-2.777,1.005-2.777,4.404c0,3.766,1.277,4.293,2.745,4.293
	c0.941,0,2.042-0.558,2.617-1.356c0.128-0.176,0.128-0.287,0.016-0.415l-0.303-0.367c-0.08-0.096-0.144-0.128-0.24-0.128
	c-0.335,0-0.782,0.798-1.835,0.798c-0.83,0-1.085-0.67-1.085-2.075v-0.128l3.096-0.303c0.224-0.016,0.335-0.112,0.335-0.287V25.819z
	 M86.738,23.218c0.543,0,0.75,0.591,0.75,2.282l-1.564,0.128C85.925,23.601,86.308,23.218,86.738,23.218 M79.894,30.989h-1.309
	c-0.192,0-0.303,0.144-0.272,0.335l0.08,0.558c0.032,0.208,0.128,0.255,0.271,0.287c0.622,0.127,1.181,0.159,1.564,0.159
	c1.596,0,2.681-0.415,2.681-3.048v-6.878c0-0.176-0.112-0.272-0.271-0.272h-0.814c-0.144,0-0.24,0.08-0.287,0.224l-0.159,0.447
	c-0.383-0.495-0.974-0.766-1.564-0.766c-1.405,0-2.298,1.293-2.298,3.814c0,2.872,0.59,3.989,1.931,3.989
	c0.591,0,1.277-0.287,1.66-1.037v0.479C81.107,30.702,81.043,30.989,79.894,30.989 M81.059,26.984
	c-0.606,1.101-0.83,1.341-1.133,1.341c-0.303,0-0.511-0.734-0.511-2.505c0-1.867,0.319-2.378,0.782-2.378
	c0.303,0,0.606,0.176,0.862,0.574V26.984z M77.053,30.383c0.16-0.016,0.24-0.128,0.24-0.271v-0.574c0-0.128-0.064-0.24-0.224-0.272
	l-0.798-0.176v-4.612c0-1.58-0.782-2.505-2.442-2.505c-1.069,0-2.042,0.591-2.649,1.404c-0.127,0.176-0.112,0.367,0.032,0.478
	l0.479,0.399c0.175,0.159,0.303,0.096,0.463-0.08c0.415-0.479,0.814-0.814,1.372-0.814c0.606,0,0.894,0.383,0.894,1.229v0.782
	h-0.367c-1.34,0-2.92,0.638-2.92,2.888c0,1.628,0.686,2.393,1.835,2.393c0.942,0,1.404-0.702,1.739-1.276l0.096,0.941
	c0.016,0.176,0.144,0.255,0.335,0.239L77.053,30.383z M74.42,26.681v1.229c-0.559,1.037-0.846,1.245-1.021,1.245
	c-0.239,0-0.383-0.271-0.383-1.101c0-1.021,0.431-1.372,1.037-1.372H74.42z M63.441,25.819c0-2.92-0.798-3.862-2.569-3.862
	c-1.708,0-2.777,1.005-2.777,4.404c0,3.766,1.277,4.293,2.745,4.293c0.941,0,2.043-0.558,2.617-1.356
	c0.128-0.176,0.128-0.287,0.016-0.415l-0.303-0.367c-0.08-0.096-0.144-0.128-0.239-0.128c-0.335,0-0.782,0.798-1.835,0.798
	c-0.83,0-1.085-0.67-1.085-2.075v-0.128l3.096-0.303c0.224-0.016,0.335-0.112,0.335-0.287V25.819z M60.823,23.218
	c0.543,0,0.75,0.591,0.75,2.282l-1.564,0.128C60.01,23.601,60.393,23.218,60.823,23.218 M51.02,23.872v3.942
	c-0.622,1.101-0.878,1.34-1.149,1.34c-0.335,0-0.527-0.782-0.527-3c0-2.17,0.351-2.713,0.814-2.713
	C50.462,23.442,50.781,23.601,51.02,23.872 M52.871,19.612c0-0.207-0.143-0.287-0.335-0.271l-2.298,0.192
	c-0.16,0.016-0.239,0.127-0.239,0.271v0.574c0,0.128,0.064,0.24,0.223,0.272l0.798,0.176v1.644c-0.271-0.24-0.686-0.431-1.245-0.431
	c-1.404,0-2.346,1.293-2.346,4.34c0,3.208,0.702,4.277,1.979,4.277c0.766,0,1.34-0.303,1.883-1.324l0.112,0.989
	c0.016,0.176,0.144,0.255,0.335,0.239l1.915-0.176c0.16-0.016,0.239-0.128,0.239-0.271v-0.574c0-0.128-0.064-0.24-0.223-0.272
	l-0.798-0.176V19.612z M128.527,29.074v-3.973c0-2.154-0.559-3.144-1.804-3.144c-0.766,0-1.342,0.303-1.885,1.324l-0.112-0.989
	c-0.016-0.176-0.144-0.255-0.335-0.239l-1.916,0.175c-0.16,0.016-0.24,0.128-0.24,0.272v0.574c0,0.128,0.064,0.239,0.224,0.271
	l0.798,0.176v6.511c0,0.24,0.144,0.447,0.447,0.447h0.958c0.272,0,0.448-0.191,0.448-0.447v-5.234c0.622-1.101,0.878-1.34,1.15-1.34
	c0.271,0,0.415,0.367,0.415,1.851v4.979c0,0.207,0.144,0.287,0.336,0.271l2.299-0.191c0.16-0.016,0.24-0.128,0.24-0.272v-0.574
	c0-0.128-0.064-0.239-0.224-0.271L128.527,29.074z M119.838,30.319c0.016,0.176,0.144,0.255,0.335,0.239l1.915-0.176
	c0.16-0.016,0.24-0.128,0.24-0.271v-0.574c0-0.128-0.064-0.24-0.224-0.272l-0.798-0.176v-6.766c0-0.207-0.144-0.287-0.335-0.271
	l-2.027,0.191c-0.159,0.016-0.239,0.128-0.239,0.271v0.638c0,0.128,0.064,0.24,0.223,0.272l0.527,0.111v4.277
	c-0.622,1.101-0.878,1.34-1.149,1.34c-0.271,0-0.415-0.367-0.415-1.851v-4.979c0-0.207-0.144-0.287-0.335-0.271l-2.027,0.191
	c-0.16,0.016-0.239,0.128-0.239,0.271v0.638c0,0.128,0.063,0.24,0.223,0.272l0.527,0.111v3.974c0,2.154,0.558,3.144,1.803,3.144
	c0.766,0,1.34-0.303,1.883-1.324L119.838,30.319z M111.431,23.505h-0.67c-0.16,0-0.271-0.096-0.271-0.271v-0.83
	c0-0.176,0.112-0.272,0.271-0.272h0.67l0.399-1.803c0.048-0.224,0.144-0.335,0.319-0.367l0.766-0.175
	c0.255-0.064,0.367,0.112,0.367,0.271v2.074h1.229c0.16,0,0.271,0.096,0.271,0.272v0.83c0,0.176-0.112,0.271-0.271,0.271h-1.229
	v5.011c0,0.59,0.08,0.67,0.24,0.67s0.367-0.08,0.686-0.319c0.128-0.096,0.287-0.08,0.383,0.064l0.303,0.431
	c0.096,0.128,0.096,0.255,0.016,0.383c-0.048,0.08-0.176,0.207-0.239,0.271c-0.399,0.399-0.974,0.638-1.66,0.638
	c-0.957,0-1.58-0.558-1.58-2.042V23.505z M109.489,22.324c0-0.207-0.143-0.287-0.335-0.271l-2.298,0.191
	c-0.16,0.016-0.239,0.128-0.239,0.271v0.574c0,0.128,0.063,0.24,0.223,0.272l0.798,0.175v6.75c0,0.207,0.144,0.287,0.335,0.271
	l2.298-0.191c0.16-0.016,0.24-0.128,0.24-0.272v-0.574c0-0.128-0.064-0.239-0.224-0.271l-0.798-0.176V22.324z M108.739,21.383
	c0.607,0,0.846-0.239,0.846-0.894v-0.271c0-0.67-0.239-0.894-0.846-0.894h-0.43c-0.607,0-0.846,0.224-0.846,0.894v0.271
	c0,0.654,0.239,0.894,0.846,0.894H108.739z M100.305,22.404c0-0.176-0.111-0.272-0.271-0.272h-4.117
	c-0.176,0-0.272,0.112-0.272,0.272v0.846c0,0.176,0.112,0.271,0.272,0.271h2.441l-2.569,5.075c-0.128,0.207-0.191,0.383-0.191,0.606
	v1.006c0,0.176,0.111,0.271,0.271,0.271h4.182c0.176,0,0.271-0.111,0.271-0.271v-0.846c0-0.176-0.111-0.271-0.271-0.271h-2.49
	l2.554-5.059c0.112-0.192,0.191-0.447,0.191-0.766V22.404z M56.706,22.324c0-0.207-0.144-0.287-0.335-0.271l-2.298,0.191
	c-0.16,0.016-0.239,0.128-0.239,0.271v0.574c0,0.128,0.064,0.24,0.223,0.272l0.798,0.175v6.75c0,0.207,0.144,0.287,0.335,0.271
	l2.298-0.191c0.16-0.016,0.239-0.128,0.239-0.272v-0.574c0-0.128-0.064-0.239-0.223-0.271l-0.798-0.176V22.324z M67.031,23.505
	h-0.67c-0.16,0-0.271-0.096-0.271-0.271v-0.83c0-0.176,0.112-0.272,0.271-0.272h0.67l0.399-1.803
	c0.048-0.224,0.144-0.335,0.319-0.367l0.766-0.175c0.255-0.064,0.367,0.112,0.367,0.271v2.074h1.357
	c0.159,0,0.271,0.096,0.271,0.272v0.83c0,0.176-0.112,0.271-0.271,0.271h-1.357v5.011c0,0.59,0.08,0.67,0.239,0.67
	s0.367-0.08,0.686-0.319c0.127-0.096,0.287-0.08,0.383,0.064l0.303,0.431c0.096,0.128,0.096,0.255,0.016,0.383
	c-0.048,0.08-0.175,0.207-0.239,0.271c-0.399,0.399-0.973,0.638-1.66,0.638c-0.958,0-1.58-0.558-1.58-2.042V23.505z M55.957,21.383
	c0.606,0,0.846-0.239,0.846-0.894v-0.271c0-0.67-0.239-0.894-0.846-0.894h-0.431c-0.606,0-0.846,0.224-0.846,0.894v0.271
	c0,0.654,0.239,0.894,0.846,0.894H55.957z M95.031,28.149c0-2.681-2.952-2.378-2.952-3.973c0-0.479,0.24-0.814,0.734-0.814
	c0.351,0,0.703,0.112,1.197,0.383c0.176,0.096,0.303,0.048,0.383-0.08l0.367-0.638c0.08-0.143,0.064-0.271-0.064-0.367
	c-0.622-0.463-1.324-0.702-2.09-0.702c-1.5,0-2.41,0.926-2.41,2.378c0,2.617,2.921,2.393,2.921,3.973c0,0.543-0.272,0.91-0.782,0.91
	c-0.447,0-0.798-0.096-1.325-0.383c-0.223-0.128-0.367-0.064-0.463,0.111l-0.303,0.527c-0.112,0.191-0.08,0.367,0.096,0.478
	c0.59,0.431,1.293,0.702,2.154,0.702C94.09,30.654,95.031,29.681,95.031,28.149"/>
<path fill-rule="evenodd" clip-rule="evenodd" d="M18.718,19.241c0.392-0.645-0.474-0.122-0.65,0.003
	c-0.24,0.228,0.129,0.663,0.391,0.403L18.718,19.241z M21.435,24.526c-0.008-0.268-0.075-0.417-0.254-0.123
	c-0.145,0.239-0.28,0.27-0.425,0.418c-0.268,0.274,0.075,0.625,0.378,0.371C21.315,25.039,21.443,24.78,21.435,24.526 M20.72,21.972
	c-0.279,0-0.574-0.023-0.914-0.17c-0.306-0.05-0.641,0.147-1.166,0.718c-0.269,0.292-0.456,0.801-0.49,1.134
	c-0.113,1.114,0.909,1.335,1.736,0.893c0.354-0.189,0.745-0.742,0.869-1.062c0.133-0.342,0.18-1.141,0.072-1.433
	C20.818,22.023,20.772,21.972,20.72,21.972 M18.433,20.583c-0.048-0.31-0.504-0.749-0.9-0.732c-0.475,0.02-1.252,0.424-1.688,1.224
	c-0.025,0.24,0.015,0.253,0.107,0.615c0.084,0.331,0.095,0.671,0.044,1.022c0.076,0.421,0.632,0.489,0.926,0.48
	c0.344-0.01,1.014-1.159,1.252-1.218C18.404,21.819,18.5,21.012,18.433,20.583 M15.368,20.331c0.192-0.333,0.158-0.376-0.196-0.263
	c-0.239,0.076-0.383,0.165-0.498,0.359c-0.163,0.275,0.012,0.501,0.289,0.349C15.154,20.67,15.305,20.443,15.368,20.331
	 M20.89,26.687c-0.042-0.658-0.357-1.69-1.378-1.31c-0.446,0.166-0.468,0.731-0.684,1.046c-0.242,0.35-0.517,0.544-0.497,0.992
	c0.016,0.363,0.395,1.205,1.021,1.042c0.605-0.159,0.605-0.426,0.896-0.706C20.564,27.591,20.742,27.221,20.89,26.687
	 M15.226,22.198c0.059-0.385-0.14-0.743-0.295-0.891c-0.043-0.041-0.071-0.049-0.148-0.043c-0.372,0.041-0.588,0.002-0.974-0.125
	c-0.214-0.04-1.079,0.375-1.309,0.707c-0.336,0.487-0.268,1.771,0.285,2.011c0.322,0.14,1.082-0.029,1.32-0.153
	C14.461,23.519,15.127,22.842,15.226,22.198 M16.419,23.794c0.592,0.139,0.58,0.915,0.81,1.033c0.309,0.158,0.802,0.429,0.651,1.238
	c-0.344,1.308,0.039,1.806,0.21,2.523c-0.044,0.549-0.17,0.929-0.667,1.521c-0.331,0.395-1.381,0.97-1.966,0.525
	c-0.522-0.395-0.826-1.092-0.877-1.217c-0.005-0.013-0.014-0.02-0.025-0.022c-0.121-0.021-0.854-0.158-1.113-0.385
	c-0.231-0.203-0.677-0.907-0.776-1.091c-0.011-0.017-0.013-0.028-0.039-0.031c-0.184-0.008-0.341,0.093-0.64-0.001
	c-0.518-0.161-1.216-0.72-1.224-1.217c-0.01-0.671,1.014-1.669,1.612-1.843c0.582-0.169,1.511-0.264,1.511-0.264
	c0.583-0.411,1.437-0.615,1.437-0.615S16.068,23.711,16.419,23.794 M21.076,21.003c0.129-0.411,0.043-0.433-0.233-0.229
	c-0.078,0.058-0.386,0.278-0.432,0.333c-0.125,0.33,0.277,0.625,0.525,0.326C20.97,21.364,21.054,21.074,21.076,21.003"/>
<path fill-rule="evenodd" clip-rule="evenodd" d="M35.583,30.333c0.16-0.016,0.239-0.128,0.239-0.272v-0.574
	c0-0.128-0.064-0.239-0.224-0.271l-0.798-0.176v-4.611c0-1.58-0.782-2.505-2.442-2.505c-1.069,0-2.042,0.59-2.649,1.404
	c-0.127,0.176-0.111,0.367,0.032,0.478l0.479,0.399c0.176,0.159,0.303,0.096,0.463-0.08c0.415-0.479,0.814-0.814,1.372-0.814
	c0.606,0,0.894,0.383,0.894,1.229v0.782h-0.367c-1.34,0-2.92,0.638-2.92,2.888c0,1.628,0.686,2.393,1.835,2.393
	c0.942,0,1.404-0.702,1.739-1.276l0.096,0.942c0.016,0.175,0.144,0.255,0.335,0.239L35.583,30.333z M32.95,26.631v1.229
	c-0.559,1.037-0.846,1.245-1.021,1.245c-0.239,0-0.383-0.271-0.383-1.101c0-1.021,0.431-1.372,1.037-1.372H32.95z M44.455,30.53
	c0.607,0,0.846-0.239,0.846-0.894v-0.271c0-0.67-0.239-0.894-0.846-0.894h-0.431c-0.607,0-0.846,0.224-0.846,0.894v0.271
	c0,0.655,0.239,0.894,0.846,0.894H44.455z M41.204,22.354c0-0.176-0.111-0.271-0.271-0.271h-4.12c-0.176,0-0.272,0.112-0.272,0.271
	V23.2c0,0.176,0.112,0.271,0.272,0.271h2.443l-2.571,5.075c-0.128,0.207-0.191,0.383-0.191,0.606v1.005
	c0,0.176,0.111,0.271,0.271,0.271h4.184c0.176,0,0.271-0.112,0.271-0.271v-0.846c0-0.176-0.111-0.272-0.271-0.272h-2.491
	l2.555-5.058c0.112-0.192,0.191-0.447,0.191-0.766V22.354z M25.561,23.455h-0.67c-0.159,0-0.271-0.096-0.271-0.271v-0.83
	c0-0.176,0.112-0.271,0.271-0.271h0.67l0.399-1.803c0.048-0.224,0.143-0.335,0.319-0.367l0.766-0.176
	c0.255-0.064,0.367,0.112,0.367,0.271v2.074h1.357c0.159,0,0.271,0.096,0.271,0.271v0.83c0,0.176-0.112,0.271-0.271,0.271h-1.357
	v5.011c0,0.59,0.08,0.67,0.239,0.67c0.16,0,0.367-0.08,0.686-0.319c0.127-0.096,0.287-0.08,0.383,0.064l0.303,0.431
	c0.096,0.128,0.096,0.255,0.016,0.383c-0.048,0.08-0.176,0.207-0.239,0.271c-0.399,0.399-0.973,0.638-1.66,0.638
	c-0.958,0-1.58-0.558-1.58-2.042V23.455z"/>
</svg>
