<svg width="97" height="80" xmlns="http://www.w3.org/2000/svg"><path d="m1.93908,3.16261l11.0254,24.97176l18.08727,3.45972l17.5405,-3.45972l2.68798,0.5323l-10.88876,24.70566q-1.50345,3.59273 -1.50345,6.91933q0,7.09676 5.12547,12.08669t12.32392,4.98993q7.28957,0 12.41503,-4.98993t5.12547,-12.08669q0,-3.14919 -1.41235,-6.60886l-10.06874,-22.79843l3.64481,0.70972l18.1784,-3.45972l11.02544,-24.97176l-23.87329,4.52415l-22.77991,-4.52415l-22.7799,4.52415l-23.87327,-4.52415zm5.87719,3.19351l18.58839,3.81452l0.5467,2.70567l3.64478,-3.54841l4.92043,-0.97579l-7.83625,7.62905l0.6834,3.14922l12.02775,-11.70972l4.82931,-0.97581l-16.21923,15.79032l0.72892,3.10488l18.86177,-18.36294l0,-1.19757l22.18759,4.3911l2.278,-0.48784l-2.73361,2.66125l-1.00227,4.79034l8.65633,-8.42745l4.96598,-1.10887l-14.76138,14.37094l-1.00227,4.79036l20.59297,-20.13711l1.59461,-0.26615l-1.68571,4.25809l-19.68182,19.07258l-1.59457,0.35484l-4.73823,-0.88704l-5.33046,-12.10892l-4.37374,10.20164l-3.37143,-0.66537l0,-0.70967l-0.82005,0.88712l-4.87492,0.93145l5.69497,-5.54436l0,-3.81449l-10.52432,10.24595l-4.966,1.02016l15.49031,-15.08064l0,-3.72579l-18.17833,17.69754l0.36448,1.55241l-14.76134,-3.19354l-8.20078,-20.49195l0.00002,0zm39.8648,53.93553q0,-3.45966 2.55134,-5.94355t6.105,-2.48389q3.59921,0 6.17331,2.48389t2.57417,5.94355q0,3.54837 -2.57417,6.05441t-6.17331,2.50608q-3.5537,0 -6.105,-2.52825t-2.55134,-6.03224zm25.2856,-31.62499l12.21008,-11.88711l-2.41468,6.07661l-4.78376,4.74597l-5.01163,1.06452l-0.00002,0.00001z" transform="rotate(-180, 48.5923, 40.2654)" /></svg>
